<svg version="1.1" id="Layer_1" xmlns="http://www.w3.org/2000/svg" xmlns:xlink="http://www.w3.org/1999/xlink" x="0px" y="0px"
	 width="100%" viewBox="0 0 573 194" enable-background="new 0 0 573 194" xml:space="preserve">
<path fill="#010000" opacity="1.000000" stroke="none" 
	d="
M363.000000,195.000000 
	C242.000000,195.000000 121.500000,195.000000 1.000000,195.000000 
	C1.000000,130.333328 1.000000,65.666664 1.000000,1.000000 
	C192.000000,1.000000 383.000000,1.000000 574.000000,1.000000 
	C574.000000,65.666664 574.000000,130.333328 574.000000,195.000000 
	C503.833344,195.000000 433.666656,195.000000 363.000000,195.000000 
M442.393921,66.993629 
	C442.193909,67.287323 441.993866,67.581017 441.877533,67.898872 
	C441.877533,67.898872 441.838318,67.821121 441.316895,68.089615 
	C440.861664,68.719864 440.406464,69.350105 440.000519,70.002296 
	C440.000519,70.002296 439.987274,69.950005 439.474609,70.100166 
	C439.289337,70.390587 439.104095,70.681000 438.982269,70.986786 
	C438.982269,70.986786 438.956757,70.926712 438.459351,71.122475 
	C438.121307,71.535805 437.783234,71.949142 437.365723,72.375603 
	C437.365723,72.375603 437.352875,72.455116 436.794434,72.782249 
	C435.799927,73.506508 434.805450,74.230766 433.390228,75.115692 
	C433.118774,75.299522 432.981140,75.555351 432.477142,76.132385 
	C432.127899,76.568474 431.778625,77.004570 431.380554,77.463951 
	C431.380554,77.463951 431.372772,77.517464 430.970428,77.761444 
	C430.724304,77.972763 430.564789,78.236443 430.894501,78.930206 
	C430.766022,78.798523 430.637543,78.666840 430.063171,78.821075 
	C429.918030,79.137360 429.772858,79.453644 429.745911,79.766365 
	C429.745911,79.766365 429.732330,79.648895 429.187714,79.934868 
	C428.733826,80.603233 428.279938,81.271599 427.395844,82.107101 
	C427.118744,82.294891 426.974976,82.556068 426.448669,83.122108 
	C426.113251,83.574097 425.777832,84.026085 425.490112,84.549950 
	C425.490112,84.549950 425.404938,84.536362 424.998657,84.805420 
	C424.752411,85.037933 424.606415,85.321968 424.648804,85.680496 
	C424.648804,85.680496 424.618500,85.594627 424.113770,85.929672 
	C423.697449,86.603920 423.281128,87.278168 422.934265,87.935669 
	C422.934265,87.935669 422.912659,87.867569 422.445312,88.145569 
	C422.108978,88.575592 421.772675,89.005623 421.364899,89.461922 
	C421.364899,89.461922 421.367462,89.538017 420.956116,89.845055 
	C420.824280,90.155167 420.692444,90.465271 420.676300,90.755013 
	C420.676300,90.755013 420.644470,90.641930 420.097260,90.986916 
	C419.363739,92.285278 418.630188,93.583641 417.947876,94.945984 
	C417.947876,94.945984 417.874725,94.909042 417.372467,95.219467 
	C417.126831,95.754173 416.881195,96.288872 416.770844,96.822937 
	C416.770844,96.822937 416.761780,96.687950 416.275940,96.939148 
	C416.166046,97.277588 416.056122,97.616028 415.400543,98.383255 
	C413.460876,103.134331 411.168671,107.775169 409.642670,112.655586 
	C403.103058,133.569839 415.327820,149.744293 430.473999,153.083176 
	C439.790833,155.137024 449.850159,153.967987 459.574982,153.932343 
	C462.308350,153.922333 465.032166,152.776077 467.769806,152.195557 
	C481.276062,149.331436 494.232117,145.026627 505.471771,136.749847 
	C510.377075,133.137604 513.927856,128.370682 514.640747,121.727821 
	C514.640747,121.727821 514.478271,121.484138 514.564636,121.444534 
	C514.564636,121.444534 514.544495,121.351669 514.972900,120.618782 
	C513.314880,112.800095 512.334412,104.752464 509.793274,97.232155 
	C507.596558,90.730927 503.626831,84.828796 500.064484,79.018410 
	C500.192566,78.900902 500.320679,78.783394 500.244781,77.967262 
	C498.189758,73.563141 496.134766,69.159012 494.830872,63.516071 
	C494.578125,63.104576 494.325409,62.693077 494.649597,61.895058 
	C498.231171,60.201962 498.500702,57.852451 495.994324,54.994091 
	C495.994324,54.994091 496.038208,54.980091 495.960358,54.292099 
	C495.283447,53.532196 494.606537,52.772289 493.546417,51.924057 
	C493.546417,51.924057 493.153381,51.910385 492.907806,51.309986 
	C492.042725,50.393620 491.177643,49.477253 490.287445,48.644966 
	C490.287445,48.644966 490.372559,48.623596 490.081879,48.019863 
	C488.523651,46.218300 486.965393,44.416733 485.241577,42.751602 
	C485.241577,42.751602 485.373230,42.582226 485.009521,41.996178 
	C476.869080,38.622532 476.016449,38.750908 472.876038,43.855644 
	C472.876038,43.855644 472.852753,43.778648 472.348236,43.992649 
	C472.197632,44.316425 472.047058,44.640205 471.964233,44.964680 
	C471.964233,44.964680 471.939850,44.901440 471.270050,45.258293 
	C468.809937,46.486954 466.349792,47.715614 463.958649,48.951317 
	C463.958649,48.951317 463.936249,48.885685 463.414642,49.167599 
	C462.767609,49.901939 462.120544,50.636280 461.310730,51.398254 
	C461.310730,51.398254 461.311798,51.563339 460.953308,51.743645 
	C460.729034,51.908558 460.575897,52.124043 460.443909,52.403202 
	C460.443909,52.403202 460.421997,52.450069 459.925354,52.662136 
	C459.506134,52.978020 459.086945,53.293903 459.016357,53.922131 
	C459.016357,53.922131 458.675903,53.598309 458.101349,53.751328 
	C457.803070,54.182804 457.504791,54.614277 456.976532,55.577435 
	C456.630005,56.036674 456.283508,56.495911 455.393677,56.949421 
	C455.125061,57.174801 454.856476,57.400181 454.698029,57.679165 
	C454.698029,57.679165 454.637817,57.572502 454.151398,57.738766 
	C453.925995,57.991184 453.700592,58.243599 453.757385,58.700840 
	C453.757385,58.700840 453.505096,58.460136 453.010162,58.722977 
	C452.634918,59.125854 452.259674,59.528736 451.947601,59.964443 
	C451.947601,59.964443 451.940369,59.893658 451.308807,60.051060 
	C450.052643,60.817806 448.796448,61.584557 447.375244,62.362911 
	C447.375244,62.362911 447.360809,62.527752 446.965454,62.803028 
	C446.732513,63.042469 446.600372,63.328445 446.651367,63.677074 
	C446.651367,63.677074 446.631958,63.595501 446.140839,63.785789 
	C445.941254,64.066437 445.741669,64.347092 445.642365,64.631119 
	C445.642365,64.631119 445.630829,64.531494 445.090790,64.736732 
	C444.696960,65.137192 444.303131,65.537651 443.972168,65.974113 
	C443.972168,65.974113 443.953461,65.904160 443.429047,66.049240 
	C443.226837,66.342216 443.024628,66.635201 442.920135,66.935638 
	C442.920135,66.935638 442.924683,66.837708 442.393921,66.993629 
M281.037323,142.035141 
	C281.037323,142.035141 281.052155,142.124390 281.615784,141.958649 
	C282.302460,141.295929 282.989166,140.633209 284.312408,139.685043 
	C294.348358,130.702698 300.336426,119.494209 302.188263,106.206779 
	C305.168701,84.821388 298.009552,67.154541 281.241180,53.833504 
	C263.872925,40.035862 244.339050,38.507805 224.237061,46.755604 
	C209.290543,52.888138 199.298660,64.258751 193.498947,80.060127 
	C190.121201,91.339020 189.472687,102.642555 193.150635,114.727547 
	C193.681564,116.096931 194.153641,117.492638 194.752487,118.831657 
	C201.183563,133.211563 210.909821,144.305176 226.564163,150.452515 
	C240.119003,155.232025 253.632919,155.874985 267.033112,150.009064 
	C267.033112,150.009064 267.030518,150.074463 267.757294,150.074997 
	C269.846985,149.048309 271.936646,148.021622 273.991577,146.976913 
	C273.991577,146.976913 273.983826,147.015244 274.613190,146.928497 
	C275.236023,146.396332 275.858826,145.864166 276.816040,145.247055 
	C276.816040,145.247055 277.029053,144.975632 277.636353,144.887985 
	C278.429810,144.254074 279.223297,143.620148 279.987030,142.976074 
	C279.987030,142.976074 279.978699,143.006393 280.530457,142.917587 
	C280.729248,142.618988 280.928009,142.320389 281.037323,142.035141 
M336.675812,149.956085 
	C336.996063,149.687592 337.316345,149.419098 337.850220,149.245132 
	C337.850220,149.245132 337.997314,149.063644 338.748840,149.088257 
	C341.611572,147.855759 344.474335,146.623260 347.156403,145.231659 
	C347.156403,145.231659 347.301178,145.423981 348.023743,145.240906 
	C355.073914,141.854309 362.124054,138.467712 369.845306,134.912262 
	C374.039673,132.235443 378.616272,130.001556 382.344238,126.784279 
	C388.935211,121.096191 396.139771,115.622002 397.279419,105.921974 
	C398.151489,98.499405 395.912903,91.883453 392.291992,85.548470 
	C385.149536,73.052269 373.645782,65.018768 361.835297,58.073410 
	C352.103363,52.350384 340.885101,49.146263 330.300751,44.887527 
	C327.752777,43.862328 325.106598,43.081284 322.574646,42.211678 
	C319.341614,49.380348 319.326111,49.877682 320.975769,62.146301 
	C319.717010,64.699562 318.139984,67.644806 318.788300,69.969452 
	C323.702606,87.590965 321.327728,104.591331 314.970245,121.256981 
	C311.743286,129.716248 311.506226,137.991776 314.828888,146.366409 
	C318.166412,154.778534 323.140442,156.491638 331.756104,152.079193 
	C333.167023,151.394547 334.577911,150.709885 336.021545,150.038101 
	C336.021545,150.038101 336.036316,150.006210 336.675812,149.956085 
M171.775772,64.943611 
	C177.751968,64.318199 180.594223,61.129192 179.662430,56.094788 
	C178.590485,50.302963 169.308365,41.640347 163.487076,42.012039 
	C150.221741,42.859051 137.001419,44.392345 123.744980,45.415794 
	C121.475883,45.590977 119.134071,44.424427 116.797409,44.242027 
	C114.663765,44.075485 112.387161,44.035164 110.363892,44.609596 
	C108.049530,45.266674 106.013390,47.408623 103.738480,47.616699 
	C90.326065,48.843487 76.879326,49.695061 63.163902,50.693382 
	C59.645313,57.764889 60.824455,66.653030 66.967987,72.317253 
	C68.952515,74.146950 72.162682,75.726807 74.742935,75.627197 
	C82.301147,75.335426 89.819084,74.085022 97.366631,73.352638 
	C98.682213,73.224991 100.064987,73.789772 101.734734,74.092377 
	C101.010826,75.896614 100.485695,77.108353 100.033691,78.346786 
	C94.448372,93.649841 88.551208,108.849785 83.423653,124.304970 
	C80.587708,132.852905 83.736725,141.258347 87.723404,148.686844 
	C89.507072,152.010437 94.119743,153.967590 97.698296,156.131958 
	C101.053734,158.161377 107.802116,155.628906 109.868393,151.958069 
	C112.130836,147.938721 111.008835,145.228058 107.218185,141.770355 
	C105.498283,140.201523 103.893295,136.771423 104.427589,134.770935 
	C106.590515,126.672615 109.234932,118.651413 112.389503,110.881004 
	C117.624146,97.986969 123.366402,85.298256 128.970581,72.556381 
	C129.448486,71.469788 130.370316,69.960365 131.296112,69.790085 
	C136.924301,68.754822 142.597198,67.905151 148.286209,67.272354 
	C155.843811,66.431717 163.429840,65.846474 171.775772,64.943611 
z"/>
<path fill="#EC916A" opacity="1.000000" stroke="none" 
	d="
M455.937012,56.955147 
	C456.283508,56.495911 456.630005,56.036674 457.343811,55.209793 
	C458.032684,54.427532 458.354279,54.012917 458.675903,53.598305 
	C458.675903,53.598309 459.016357,53.922131 459.132935,53.754059 
	C459.640320,53.207348 460.031158,52.828705 460.421997,52.450066 
	C460.421997,52.450069 460.443909,52.403202 460.672668,52.336731 
	C461.161774,52.106380 461.298584,51.870739 461.311798,51.563339 
	C461.311798,51.563339 461.310730,51.398254 461.718567,51.364990 
	C462.729675,50.516376 463.332977,49.701031 463.936249,48.885685 
	C463.936249,48.885685 463.958649,48.951317 464.296204,48.894253 
	C467.069122,47.525276 469.504486,46.213364 471.939850,44.901443 
	C471.939850,44.901440 471.964233,44.964680 472.134186,44.805019 
	C472.487000,44.356457 472.669891,44.067554 472.852753,43.778648 
	C472.852753,43.778648 472.876038,43.855644 473.188599,43.809753 
	C477.175507,40.526218 481.334778,42.161076 485.373230,42.582226 
	C485.373230,42.582226 485.241577,42.751602 485.299500,43.057552 
	C487.029114,45.116867 488.700836,46.870232 490.372559,48.623596 
	C490.372559,48.623596 490.287445,48.644966 490.360168,48.945190 
	C491.339722,50.133739 492.246552,51.022060 493.153381,51.910381 
	C493.153381,51.910385 493.546417,51.924057 493.780640,52.299610 
	C494.689301,53.443474 495.363739,54.211788 496.038208,54.980095 
	C496.038208,54.980091 495.994324,54.994091 495.999756,55.361370 
	C495.361023,57.912960 494.716858,60.097275 494.072693,62.281586 
	C494.325409,62.693077 494.578125,63.104576 494.408508,64.429337 
	C494.206360,70.721794 496.247009,75.217979 500.448761,78.665886 
	C500.320679,78.783394 500.192566,78.900902 500.179779,79.225784 
	C500.694031,80.843658 500.810150,82.423065 501.535889,83.638466 
	C508.506348,95.311913 512.681885,107.927559 514.544495,121.351669 
	C514.544495,121.351669 514.564636,121.444534 514.403748,121.463470 
	C514.242859,121.482414 514.147888,121.755775 514.147888,121.755775 
	C514.147888,121.755775 514.430786,121.932014 514.430786,121.932014 
	C513.927856,128.370682 510.377075,133.137604 505.471771,136.749847 
	C494.232117,145.026627 481.276062,149.331436 467.769806,152.195557 
	C465.032166,152.776077 462.308350,153.922333 459.574982,153.932343 
	C449.850159,153.967987 439.790833,155.137024 430.473999,153.083176 
	C415.327820,149.744293 403.103058,133.569839 409.642670,112.655586 
	C411.168671,107.775169 413.460876,103.134331 415.856812,97.991516 
	C416.462646,97.295822 416.612213,96.991882 416.761780,96.687943 
	C416.761780,96.687950 416.770844,96.822937 416.955627,96.658463 
	C417.385223,95.965668 417.629974,95.437355 417.874725,94.909042 
	C417.874725,94.909042 417.947876,94.945984 418.255005,94.828766 
	C419.256256,93.355003 419.950348,91.998466 420.644470,90.641930 
	C420.644470,90.641930 420.676300,90.755013 420.829468,90.614075 
	C421.110901,90.161430 421.239166,89.849724 421.367432,89.538010 
	C421.367462,89.538017 421.364899,89.461922 421.685913,89.372101 
	C422.308838,88.810707 422.610748,88.339142 422.912659,87.867569 
	C422.912659,87.867569 422.934265,87.935669 423.169861,87.790314 
	C423.809814,86.961517 424.214142,86.278069 424.618500,85.594620 
	C424.618500,85.594627 424.648804,85.680496 424.817993,85.544983 
	C425.242859,85.174156 425.382111,84.883118 425.404938,84.536362 
	C425.404938,84.536362 425.490112,84.549950 425.750702,84.430496 
	C426.329041,83.837570 426.646790,83.364105 426.964539,82.890625 
	C426.974976,82.556068 427.118744,82.294891 427.889587,81.881294 
	C428.833008,80.986626 429.282654,80.317757 429.732330,79.648895 
	C429.732330,79.648895 429.745911,79.766365 429.904785,79.619301 
	C430.212097,79.159874 430.360565,78.847511 430.509033,78.535156 
	C430.637543,78.666840 430.766022,78.798523 430.915161,78.644196 
	C431.206970,78.143219 431.352600,77.862976 431.372772,77.517464 
	C431.372772,77.517464 431.380554,77.463951 431.694092,77.377762 
	C432.330872,76.822098 432.654083,76.352631 432.977295,75.883179 
	C432.981140,75.555351 433.118774,75.299522 433.943024,74.988068 
	C435.448181,74.058670 436.400513,73.256897 437.352875,72.455124 
	C437.352875,72.455116 437.365723,72.375603 437.683533,72.311295 
	C438.319794,71.806900 438.638275,71.366798 438.956757,70.926712 
	C438.956757,70.926712 438.982269,70.986786 439.163330,70.847641 
	C439.611877,70.500755 439.826172,70.247925 439.987274,69.950005 
	C439.987274,69.950005 440.000519,70.002296 440.274963,69.897995 
	C440.979034,69.136162 441.408661,68.478638 441.838318,67.821121 
	C441.838318,67.821121 441.877533,67.898872 442.062836,67.760262 
	C442.473663,67.360336 442.699158,67.099022 442.924683,66.837708 
	C442.924683,66.837708 442.920135,66.935638 443.097717,66.805710 
	C443.501343,66.418579 443.727386,66.161369 443.953461,65.904160 
	C443.953461,65.904160 443.972168,65.974113 444.228302,65.885330 
	C444.866577,65.374855 445.248688,64.953178 445.630829,64.531494 
	C445.630829,64.531494 445.642365,64.631119 445.832764,64.526474 
	C446.226105,64.146385 446.429047,63.870949 446.631958,63.595505 
	C446.631958,63.595501 446.651367,63.677074 446.819366,63.543594 
	C447.233612,63.167572 447.358093,62.873455 447.360809,62.527752 
	C447.360809,62.527752 447.375244,62.362911 447.816040,62.435608 
	C449.484680,61.636753 450.712524,60.765198 451.940369,59.893650 
	C451.940369,59.893658 451.947601,59.964443 452.202454,59.873959 
	C452.806580,59.342358 453.155823,58.901245 453.505096,58.460133 
	C453.505096,58.460136 453.757385,58.700840 453.866516,58.524361 
	C454.196411,58.089420 454.417114,57.830963 454.637817,57.572506 
	C454.637817,57.572502 454.698029,57.679165 454.896179,57.602020 
	C455.375214,57.334965 455.656097,57.145054 455.937012,56.955147 
M481.745331,119.627022 
	C481.745331,119.627022 481.666443,119.588928 482.274567,119.581734 
	C482.711700,119.209816 483.148865,118.837898 483.964813,118.621338 
	C483.964813,118.621338 483.575653,118.495499 484.097015,118.443573 
	C484.383026,118.254265 484.669037,118.064957 485.363281,117.327042 
	C490.979401,113.834801 492.753723,109.799004 489.965393,103.927780 
	C486.219971,96.041306 481.722687,88.511932 477.682922,81.077278 
	C474.472229,81.865501 471.743011,82.584564 468.989471,83.193565 
	C467.264801,83.575012 465.109955,83.242485 463.820801,84.167633 
	C453.279694,91.732094 443.415009,100.085449 437.215759,111.773026 
	C435.002258,115.946121 433.770477,120.639938 432.201385,125.761185 
	C435.215576,127.144814 438.203125,129.608582 441.249542,129.683640 
	C447.295685,129.832642 453.446350,129.047089 459.416840,127.921242 
	C464.277618,127.004639 468.938660,125.028969 473.697571,123.606956 
	C473.697571,123.606956 473.613190,123.601936 474.136353,123.510628 
	C474.430908,123.320129 474.725464,123.129631 475.142395,122.749229 
	C475.142395,122.749229 475.364044,122.793030 475.964722,122.625381 
	C476.306274,122.393745 476.647827,122.162117 477.157379,121.723419 
	C477.157379,121.723419 477.423431,121.740341 477.999542,121.594994 
	C478.327667,121.376633 478.655792,121.158279 479.145935,120.736923 
	C479.145935,120.736923 479.404236,120.763771 480.096588,120.713760 
	C480.643738,120.322403 481.190887,119.931053 481.745331,119.627022 
z"/>
<path fill="#EB916A" opacity="1.000000" stroke="none" 
	d="
M337.997314,149.063660 
	C337.997314,149.063644 337.850220,149.245132 337.446747,149.283310 
	C336.707611,149.549713 336.371948,149.777954 336.036316,150.006195 
	C336.036316,150.006210 336.021545,150.038101 335.645081,150.020081 
	C333.868469,150.683655 332.468323,151.365265 331.068207,152.046875 
	C323.140442,156.491638 318.166412,154.778534 314.828888,146.366409 
	C311.506226,137.991776 311.743286,129.716248 314.970245,121.256981 
	C321.327728,104.591331 323.702606,87.590965 318.788300,69.969452 
	C318.139984,67.644806 319.717010,64.699562 320.975769,62.146301 
	C319.326111,49.877682 319.341614,49.380348 322.574646,42.211678 
	C325.106598,43.081284 327.752777,43.862328 330.300751,44.887527 
	C340.885101,49.146263 352.103363,52.350384 361.835297,58.073410 
	C373.645782,65.018768 385.149536,73.052269 392.291992,85.548470 
	C395.912903,91.883453 398.151489,98.499405 397.279419,105.921974 
	C396.139771,115.622002 388.935211,121.096191 382.344238,126.784279 
	C378.616272,130.001556 374.039673,132.235443 369.116486,134.986755 
	C361.867828,137.691940 355.326691,140.272629 348.857697,143.022903 
	C348.130096,143.332245 347.810181,144.600449 347.301178,145.423981 
	C347.301178,145.423981 347.156403,145.231659 346.851501,145.246399 
	C343.696869,146.528641 340.847107,147.796158 337.997314,149.063660 
M378.888794,95.724648 
	C369.152313,81.219810 353.877472,75.871368 337.178436,70.452095 
	C341.434692,87.700645 341.801208,104.323631 338.193542,121.633141 
	C340.536469,120.908897 341.841736,120.664291 343.006561,120.119408 
	C350.275818,116.719040 357.566711,113.357674 364.745605,109.773521 
	C370.762817,106.769379 376.113525,102.923592 378.888794,95.724648 
z"/>
<path fill="#EB916A" opacity="1.000000" stroke="none" 
	d="
M171.389709,65.047554 
	C163.429840,65.846474 155.843811,66.431717 148.286209,67.272354 
	C142.597198,67.905151 136.924301,68.754822 131.296112,69.790085 
	C130.370316,69.960365 129.448486,71.469788 128.970581,72.556381 
	C123.366402,85.298256 117.624146,97.986969 112.389503,110.881004 
	C109.234932,118.651413 106.590515,126.672615 104.427589,134.770935 
	C103.893295,136.771423 105.498283,140.201523 107.218185,141.770355 
	C111.008835,145.228058 112.130836,147.938721 109.868393,151.958069 
	C107.802116,155.628906 101.053734,158.161377 97.698296,156.131958 
	C94.119743,153.967590 89.507072,152.010437 87.723404,148.686844 
	C83.736725,141.258347 80.587708,132.852905 83.423653,124.304970 
	C88.551208,108.849785 94.448372,93.649841 100.033691,78.346786 
	C100.485695,77.108353 101.010826,75.896614 101.734734,74.092377 
	C100.064987,73.789772 98.682213,73.224991 97.366631,73.352638 
	C89.819084,74.085022 82.301147,75.335426 74.742935,75.627197 
	C72.162682,75.726807 68.952515,74.146950 66.967987,72.317253 
	C60.824455,66.653030 59.645313,57.764889 63.163902,50.693382 
	C76.879326,49.695061 90.326065,48.843487 103.738480,47.616699 
	C106.013390,47.408623 108.049530,45.266674 110.363892,44.609596 
	C112.387161,44.035164 114.663765,44.075485 116.797409,44.242027 
	C119.134071,44.424427 121.475883,45.590977 123.744980,45.415794 
	C137.001419,44.392345 150.221741,42.859051 163.487076,42.012039 
	C169.308365,41.640347 178.590485,50.302963 179.662430,56.094788 
	C180.594223,61.129192 177.751968,64.318199 171.389709,65.047554 
z"/>
<path fill="#E9A61C" opacity="1.000000" stroke="none" 
	d="
M225.978394,150.049866 
	C210.909821,144.305176 201.183563,133.211563 194.752487,118.831657 
	C194.153641,117.492638 193.681564,116.096931 193.339462,114.038483 
	C193.012253,108.630661 191.985031,103.899010 192.103668,99.196266 
	C192.268936,92.646614 193.291763,86.118599 193.947556,79.581322 
	C199.298660,64.258751 209.290543,52.888138 224.237061,46.755604 
	C244.339050,38.507805 263.872925,40.035862 281.241180,53.833504 
	C298.009552,67.154541 305.168701,84.821388 302.188263,106.206779 
	C300.336426,119.494209 294.348358,130.702698 283.682251,139.852737 
	C282.385437,140.721741 281.718781,141.423065 281.052124,142.124390 
	C281.052155,142.124390 281.037323,142.035141 280.852112,142.144257 
	C280.437531,142.504379 280.208099,142.755386 279.978699,143.006393 
	C279.978699,143.006393 279.987030,142.976074 279.669861,142.993439 
	C278.578125,143.665741 277.803589,144.320679 277.029053,144.975616 
	C277.029053,144.975632 276.816040,145.247055 276.341309,145.326691 
	C275.238983,145.942627 274.611389,146.478928 273.983826,147.015244 
	C273.983826,147.015244 273.991577,146.976913 273.634888,146.990570 
	C271.195648,148.027634 269.113068,149.051056 267.030518,150.074463 
	C267.030518,150.074463 267.033112,150.009064 266.638794,150.016129 
	C256.651398,151.958450 247.089844,154.185547 237.196945,152.074066 
	C233.482620,151.281311 229.719345,150.717865 225.978394,150.049866 
M213.976013,123.012871 
	C213.976013,123.012871 213.994141,122.966438 214.157501,123.536369 
	C214.581482,123.917221 215.005463,124.298080 215.344299,124.684715 
	C215.344299,124.684715 215.352158,124.599724 215.458908,125.064789 
	C215.813965,125.345360 216.169006,125.625923 216.923004,126.267891 
	C216.982468,126.437195 217.041916,126.606491 217.243423,127.423065 
	C217.944031,127.850922 218.644653,128.278778 219.222702,128.731628 
	C219.222702,128.731628 219.207733,128.607468 219.423843,129.221207 
	C220.120590,129.633514 220.817322,130.045807 221.207443,130.786087 
	C221.207443,130.786087 221.484772,130.432983 221.666550,131.008850 
	C222.153168,131.321854 222.639771,131.634872 223.045837,131.946579 
	C223.045837,131.946579 223.049179,131.866089 223.238998,132.537735 
	C225.584976,133.642105 227.930939,134.746475 231.011307,135.967133 
	C240.370819,141.685791 250.898087,140.356644 259.838470,137.221252 
	C273.439972,132.451248 283.244446,122.332489 286.664398,107.448555 
	C291.643829,85.777672 279.731750,66.618370 261.947479,59.749142 
	C240.952240,51.639671 216.443863,60.650669 207.104797,85.370384 
	C203.013702,94.747047 202.744156,103.967102 208.686630,113.293945 
	C208.821548,113.837585 208.956467,114.381226 208.798126,115.340599 
	C209.257446,115.864449 209.716751,116.388290 210.094849,116.907120 
	C210.094849,116.907120 210.103699,116.826218 210.178452,117.448433 
	C210.537170,117.943352 210.895889,118.438278 211.137085,118.902061 
	C211.137085,118.902061 211.172928,118.785889 211.174362,119.347565 
	C211.609695,119.891914 212.045029,120.436264 212.865662,121.311737 
	C212.916367,121.473312 212.967087,121.634888 213.247574,122.284111 
	C213.506958,122.528229 213.766342,122.772339 213.976013,123.012871 
z"/>
<path fill="#CF8D72" opacity="1.000000" stroke="none" 
	d="
M514.758667,120.985229 
	C512.681885,107.927559 508.506348,95.311913 501.535889,83.638466 
	C500.810150,82.423065 500.694031,80.843658 500.367981,79.047493 
	C503.626831,84.828796 507.596558,90.730927 509.793274,97.232155 
	C512.334412,104.752464 513.314880,112.800095 514.758667,120.985229 
z"/>
<path fill="#CE9E3B" opacity="1.000000" stroke="none" 
	d="
M226.271271,150.251190 
	C229.719345,150.717865 233.482620,151.281311 237.196945,152.074066 
	C247.089844,154.185547 256.651398,151.958450 266.663696,150.037384 
	C253.632919,155.874985 240.119003,155.232025 226.271271,150.251190 
z"/>
<path fill="#D7A039" opacity="1.000000" stroke="none" 
	d="
M193.723251,79.820724 
	C193.291763,86.118599 192.268936,92.646614 192.103668,99.196266 
	C191.985031,103.899010 193.012253,108.630661 193.360443,113.667480 
	C189.472687,102.642555 190.121201,91.339020 193.723251,79.820724 
z"/>
<path fill="#D18D72" opacity="1.000000" stroke="none" 
	d="
M347.662476,145.332443 
	C347.810181,144.600449 348.130096,143.332245 348.857697,143.022903 
	C355.326691,140.272629 361.867828,137.691940 368.780945,135.071167 
	C362.124054,138.467712 355.073914,141.854309 347.662476,145.332443 
z"/>
<path fill="#CF8D72" opacity="1.000000" stroke="none" 
	d="
M500.346771,78.316574 
	C496.247009,75.217979 494.206360,70.721794 494.032928,65.048752 
	C496.134766,69.159012 498.189758,73.563141 500.346771,78.316574 
z"/>
<path fill="#D39375" opacity="1.000000" stroke="none" 
	d="
M485.191376,42.289200 
	C481.334778,42.161076 477.175507,40.526218 473.149780,43.799294 
	C476.016449,38.750908 476.869080,38.622532 485.191376,42.289200 
z"/>
<path fill="#D39375" opacity="1.000000" stroke="none" 
	d="
M471.604950,45.079872 
	C469.504486,46.213364 467.069122,47.525276 464.261688,48.890732 
	C466.349792,47.715614 468.809937,46.486954 471.604950,45.079872 
z"/>
<path fill="#D18D72" opacity="1.000000" stroke="none" 
	d="
M338.373077,149.075958 
	C340.847107,147.796158 343.696869,146.528641 346.941833,145.325943 
	C344.474335,146.623260 341.611572,147.855759 338.373077,149.075958 
z"/>
<path fill="#D39375" opacity="1.000000" stroke="none" 
	d="
M490.227234,48.321732 
	C488.700836,46.870232 487.029114,45.116867 485.382263,42.989334 
	C486.965393,44.416733 488.523651,46.218300 490.227234,48.321732 
z"/>
<path fill="#D39375" opacity="1.000000" stroke="none" 
	d="
M494.361145,62.088326 
	C494.716858,60.097275 495.361023,57.912960 496.014771,55.343681 
	C498.500702,57.852451 498.231171,60.201962 494.361145,62.088326 
z"/>
<path fill="#CE9E3B" opacity="1.000000" stroke="none" 
	d="
M267.393921,150.074738 
	C269.113068,149.051056 271.195648,148.027634 273.652283,146.999573 
	C271.936646,148.021622 269.846985,149.048309 267.393921,150.074738 
z"/>
<path fill="#D39375" opacity="1.000000" stroke="none" 
	d="
M420.370850,90.814423 
	C419.950348,91.998466 419.256256,93.355003 418.229370,94.796768 
	C418.630188,93.583641 419.363739,92.285278 420.370850,90.814423 
z"/>
<path fill="#D39375" opacity="1.000000" stroke="none" 
	d="
M451.624573,59.972351 
	C450.712524,60.765198 449.484680,61.636753 447.898560,62.429806 
	C448.796448,61.584557 450.052643,60.817806 451.624573,59.972351 
z"/>
<path fill="#D18D72" opacity="1.000000" stroke="none" 
	d="
M331.412170,152.063034 
	C332.468323,151.365265 333.868469,150.683655 335.628723,150.013641 
	C334.577911,150.709885 333.167023,151.394547 331.412170,152.063034 
z"/>
<path fill="#D39375" opacity="1.000000" stroke="none" 
	d="
M437.073669,72.618683 
	C436.400513,73.256897 435.448181,74.058670 434.153381,74.907738 
	C434.805450,74.230766 435.799927,73.506508 437.073669,72.618683 
z"/>
<path fill="#D39375" opacity="1.000000" stroke="none" 
	d="
M493.030579,51.610184 
	C492.246552,51.022060 491.339722,50.133739 490.372742,48.903152 
	C491.177643,49.477253 492.042725,50.393620 493.030579,51.610184 
z"/>
<path fill="#CE9E3B" opacity="1.000000" stroke="none" 
	d="
M277.332703,144.931793 
	C277.803589,144.320679 278.578125,143.665741 279.684723,142.998505 
	C279.223297,143.620148 278.429810,144.254074 277.332703,144.931793 
z"/>
<path fill="#D39375" opacity="1.000000" stroke="none" 
	d="
M495.999268,54.636101 
	C495.363739,54.211788 494.689301,53.443474 493.972260,52.343773 
	C494.606537,52.772289 495.283447,53.532196 495.999268,54.636101 
z"/>
<path fill="#CE9E3B" opacity="1.000000" stroke="none" 
	d="
M281.333954,142.041504 
	C281.718781,141.423065 282.385437,140.721741 283.363983,139.995453 
	C282.989166,140.633209 282.302460,141.295929 281.333954,142.041504 
z"/>
<path fill="#D39375" opacity="1.000000" stroke="none" 
	d="
M463.675446,49.026642 
	C463.332977,49.701031 462.729675,50.516376 461.799957,51.351173 
	C462.120544,50.636280 462.767609,49.901939 463.675446,49.026642 
z"/>
<path fill="#D39375" opacity="1.000000" stroke="none" 
	d="
M429.460022,79.791878 
	C429.282654,80.317757 428.833008,80.986626 428.104736,81.797729 
	C428.279938,81.271599 428.733826,80.603233 429.460022,79.791878 
z"/>
<path fill="#D39375" opacity="1.000000" stroke="none" 
	d="
M424.366150,85.762146 
	C424.214142,86.278069 423.809814,86.961517 423.135132,87.798691 
	C423.281128,87.278168 423.697449,86.603920 424.366150,85.762146 
z"/>
<path fill="#CE9E3B" opacity="1.000000" stroke="none" 
	d="
M274.298523,146.971863 
	C274.611389,146.478928 275.238983,145.942627 276.174072,145.369171 
	C275.858826,145.864166 275.236023,146.396332 274.298523,146.971863 
z"/>
<path fill="#D39375" opacity="1.000000" stroke="none" 
	d="
M441.577606,67.955368 
	C441.408661,68.478638 440.979034,69.136162 440.250305,69.887016 
	C440.406464,69.350105 440.861664,68.719864 441.577606,67.955368 
z"/>
<path fill="#D39375" opacity="1.000000" stroke="none" 
	d="
M417.623596,95.064255 
	C417.629974,95.437355 417.385223,95.965668 416.888000,96.658775 
	C416.881195,96.288872 417.126831,95.754173 417.623596,95.064255 
z"/>
<path fill="#D39375" opacity="1.000000" stroke="none" 
	d="
M422.678986,88.006577 
	C422.610748,88.339142 422.308838,88.810707 421.721619,89.358963 
	C421.772675,89.005623 422.108978,88.575592 422.678986,88.006577 
z"/>
<path fill="#D39375" opacity="1.000000" stroke="none" 
	d="
M426.706604,83.006371 
	C426.646790,83.364105 426.329041,83.837570 425.726868,84.394554 
	C425.777832,84.026085 426.113251,83.574097 426.706604,83.006371 
z"/>
<path fill="#D39375" opacity="1.000000" stroke="none" 
	d="
M432.727234,76.007782 
	C432.654083,76.352631 432.330872,76.822098 431.718506,77.366119 
	C431.778625,77.004570 432.127899,76.568474 432.727234,76.007782 
z"/>
<path fill="#D39375" opacity="1.000000" stroke="none" 
	d="
M460.173676,52.556099 
	C460.031158,52.828705 459.640320,53.207348 458.958618,53.597889 
	C459.086945,53.293903 459.506134,52.978020 460.173676,52.556099 
z"/>
<path fill="#D39375" opacity="1.000000" stroke="none" 
	d="
M438.708069,71.024590 
	C438.638275,71.366798 438.319794,71.806900 437.723267,72.304733 
	C437.783234,71.949142 438.121307,71.535805 438.708069,71.024590 
z"/>
<path fill="#D39375" opacity="1.000000" stroke="none" 
	d="
M458.388611,53.674812 
	C458.354279,54.012917 458.032684,54.427532 457.458801,54.943951 
	C457.504791,54.614277 457.803070,54.182804 458.388611,53.674812 
z"/>
<path fill="#D39375" opacity="1.000000" stroke="none" 
	d="
M445.360809,64.634117 
	C445.248688,64.953178 444.866577,65.374855 444.196899,65.867325 
	C444.303131,65.537651 444.696960,65.137192 445.360809,64.634117 
z"/>
<path fill="#D39375" opacity="1.000000" stroke="none" 
	d="
M453.257629,58.591553 
	C453.155823,58.901245 452.806580,59.342358 452.170898,59.857544 
	C452.259674,59.528736 452.634918,59.125854 453.257629,58.591553 
z"/>
<path fill="#CE9E3B" opacity="1.000000" stroke="none" 
	d="
M280.254578,142.961990 
	C280.208099,142.755386 280.437531,142.504379 280.896851,142.137573 
	C280.928009,142.320389 280.729248,142.618988 280.254578,142.961990 
z"/>
<path fill="#D18D72" opacity="1.000000" stroke="none" 
	d="
M336.356079,149.981140 
	C336.371948,149.777954 336.707611,149.549713 337.339966,149.236038 
	C337.316345,149.419098 336.996063,149.687592 336.356079,149.981140 
z"/>
<path fill="#D39375" opacity="1.000000" stroke="none" 
	d="
M472.600494,43.885651 
	C472.669891,44.067554 472.487000,44.356457 472.100311,44.804672 
	C472.047058,44.640205 472.197632,44.316425 472.600494,43.885651 
z"/>
<path fill="#D39375" opacity="1.000000" stroke="none" 
	d="
M416.518860,96.813545 
	C416.612213,96.991882 416.462646,97.295822 416.129639,97.777115 
	C416.056122,97.616028 416.166046,97.277588 416.518860,96.813545 
z"/>
<path fill="#D39375" opacity="1.000000" stroke="none" 
	d="
M430.286102,78.678116 
	C430.360565,78.847511 430.212097,79.159874 429.845673,79.621078 
	C429.772858,79.453644 429.918030,79.137360 430.286102,78.678116 
z"/>
<path fill="#D39375" opacity="1.000000" stroke="none" 
	d="
M455.665344,56.952282 
	C455.656097,57.145054 455.375214,57.334965 454.841125,57.575218 
	C454.856476,57.400181 455.125061,57.174801 455.665344,56.952282 
z"/>
<path fill="#D39375" opacity="1.000000" stroke="none" 
	d="
M454.394592,57.655640 
	C454.417114,57.830963 454.196411,58.089420 453.725433,58.421947 
	C453.700592,58.243599 453.925995,57.991184 454.394592,57.655640 
z"/>
<path fill="#D39375" opacity="1.000000" stroke="none" 
	d="
M447.163147,62.665390 
	C447.358093,62.873455 447.233612,63.167572 446.778198,63.535530 
	C446.600372,63.328445 446.732513,63.042469 447.163147,62.665390 
z"/>
<path fill="#D39375" opacity="1.000000" stroke="none" 
	d="
M446.386414,63.690651 
	C446.429047,63.870949 446.226105,64.146385 445.782654,64.524780 
	C445.741669,64.347092 445.941254,64.066437 446.386414,63.690651 
z"/>
<path fill="#D39375" opacity="1.000000" stroke="none" 
	d="
M443.691254,65.976700 
	C443.727386,66.161369 443.501343,66.418579 443.048859,66.801987 
	C443.024628,66.635201 443.226837,66.342216 443.691254,65.976700 
z"/>
<path fill="#D39375" opacity="1.000000" stroke="none" 
	d="
M442.659302,66.915665 
	C442.699158,67.099022 442.473663,67.360336 442.020996,67.748184 
	C441.993866,67.581017 442.193909,67.287323 442.659302,66.915665 
z"/>
<path fill="#D39375" opacity="1.000000" stroke="none" 
	d="
M439.730957,70.025085 
	C439.826172,70.247925 439.611877,70.500755 439.131592,70.839966 
	C439.104095,70.681000 439.289337,70.390587 439.730957,70.025085 
z"/>
<path fill="#D39375" opacity="1.000000" stroke="none" 
	d="
M431.171600,77.639450 
	C431.352600,77.862976 431.206970,78.143219 430.713867,78.455330 
	C430.564789,78.236443 430.724304,77.972763 431.171600,77.639450 
z"/>
<path fill="#D39375" opacity="1.000000" stroke="none" 
	d="
M461.132568,51.653492 
	C461.298584,51.870739 461.161774,52.106380 460.697693,52.330173 
	C460.575897,52.124043 460.729034,51.908558 461.132568,51.653492 
z"/>
<path fill="#D39375" opacity="1.000000" stroke="none" 
	d="
M425.201782,84.670891 
	C425.382111,84.883118 425.242859,85.174156 424.773926,85.533508 
	C424.606415,85.321968 424.752411,85.037933 425.201782,84.670891 
z"/>
<path fill="#D39375" opacity="1.000000" stroke="none" 
	d="
M421.161774,89.691528 
	C421.239166,89.849724 421.110901,90.161430 420.771606,90.624268 
	C420.692444,90.465271 420.824280,90.155167 421.161774,89.691528 
z"/>
<path fill="#CF8D72" opacity="1.000000" stroke="none" 
	d="
M514.535767,121.829918 
	C514.430786,121.932014 514.147888,121.755775 514.147888,121.755775 
	C514.147888,121.755775 514.242859,121.482414 514.360596,121.483276 
	C514.478271,121.484138 514.640747,121.727821 514.535767,121.829918 
z"/>
<path fill="#040101" opacity="1.000000" stroke="none" 
	d="
M475.364044,122.793022 
	C475.364044,122.793030 475.142395,122.749229 474.803162,122.849380 
	C474.180359,123.167007 473.896790,123.384468 473.613190,123.601936 
	C473.613190,123.601936 473.697571,123.606956 473.311646,123.661621 
	C464.694092,125.216171 456.507538,127.093628 448.214996,128.082626 
	C442.727386,128.737106 436.935883,128.902786 432.090607,125.096077 
	C433.770477,120.639938 435.002258,115.946121 437.215759,111.773026 
	C443.415009,100.085449 453.279694,91.732094 463.820801,84.167633 
	C465.109955,83.242485 467.264801,83.575012 468.989471,83.193565 
	C471.743011,82.584564 474.472229,81.865501 477.682922,81.077278 
	C481.722687,88.511932 486.219971,96.041306 489.965393,103.927780 
	C492.753723,109.799004 490.979401,113.834801 484.897919,117.629807 
	C484.146942,118.120209 483.861298,118.307861 483.575653,118.495506 
	C483.575653,118.495499 483.964813,118.621338 483.497406,118.620392 
	C482.575470,118.942604 482.120941,119.265762 481.666443,119.588928 
	C481.666443,119.588928 481.745331,119.627022 481.406494,119.656677 
	C480.513153,120.045479 479.958710,120.404625 479.404236,120.763771 
	C479.404236,120.763771 479.145935,120.736923 478.751709,120.850388 
	C478.046143,121.222679 477.734802,121.481506 477.423431,121.740341 
	C477.423431,121.740341 477.157379,121.723419 476.746277,121.843903 
	C476.011444,122.240601 475.687744,122.516808 475.364044,122.793022 
z"/>
<path fill="#CE8B6F" opacity="1.000000" stroke="none" 
	d="
M432.145996,125.428635 
	C436.935883,128.902786 442.727386,128.737106 448.214996,128.082626 
	C456.507538,127.093628 464.694092,125.216171 473.307007,123.619606 
	C468.938660,125.028969 464.277618,127.004639 459.416840,127.921242 
	C453.446350,129.047089 447.295685,129.832642 441.249542,129.683640 
	C438.203125,129.608582 435.215576,127.144814 432.145996,125.428635 
z"/>
<path fill="#CE8B6F" opacity="1.000000" stroke="none" 
	d="
M481.970520,119.585327 
	C482.120941,119.265762 482.575470,118.942604 483.307983,118.542709 
	C483.148865,118.837898 482.711700,119.209816 481.970520,119.585327 
z"/>
<path fill="#CE8B6F" opacity="1.000000" stroke="none" 
	d="
M479.750427,120.738770 
	C479.958710,120.404625 480.513153,120.045479 481.402832,119.613007 
	C481.190887,119.931053 480.643738,120.322403 479.750427,120.738770 
z"/>
<path fill="#CE8B6F" opacity="1.000000" stroke="none" 
	d="
M473.874756,123.556282 
	C473.896790,123.384468 474.180359,123.167007 474.742004,122.944336 
	C474.725464,123.129631 474.430908,123.320129 473.874756,123.556282 
z"/>
<path fill="#CE8B6F" opacity="1.000000" stroke="none" 
	d="
M483.836334,118.469543 
	C483.861298,118.307861 484.146942,118.120209 484.693787,117.904114 
	C484.669037,118.064957 484.383026,118.254265 483.836334,118.469543 
z"/>
<path fill="#CE8B6F" opacity="1.000000" stroke="none" 
	d="
M477.711487,121.667664 
	C477.734802,121.481506 478.046143,121.222679 478.670715,120.951889 
	C478.655792,121.158279 478.327667,121.376633 477.711487,121.667664 
z"/>
<path fill="#CE8B6F" opacity="1.000000" stroke="none" 
	d="
M475.664368,122.709198 
	C475.687744,122.516808 476.011444,122.240601 476.662292,121.947433 
	C476.647827,122.162117 476.306274,122.393745 475.664368,122.709198 
z"/>
<path fill="#070302" opacity="1.000000" stroke="none" 
	d="
M378.910217,96.087547 
	C376.113525,102.923592 370.762817,106.769379 364.745605,109.773521 
	C357.566711,113.357674 350.275818,116.719040 343.006561,120.119408 
	C341.841736,120.664291 340.536469,120.908897 338.193542,121.633141 
	C341.801208,104.323631 341.434692,87.700645 337.178436,70.452095 
	C353.877472,75.871368 369.152313,81.219810 378.910217,96.087547 
z"/>
<path fill="#060300" opacity="1.000000" stroke="none" 
	d="
M207.713608,85.076172 
	C216.443863,60.650669 240.952240,51.639671 261.947479,59.749142 
	C279.731750,66.618370 291.643829,85.777672 286.664398,107.448555 
	C283.244446,122.332489 273.439972,132.451248 259.838470,137.221252 
	C250.898087,140.356644 240.370819,141.685791 230.435181,135.638931 
	C227.589081,134.162521 225.319138,133.014297 223.049179,131.866089 
	C223.049179,131.866089 223.045837,131.946579 222.978165,131.679962 
	C222.435257,131.086578 221.960007,130.759781 221.484772,130.432983 
	C221.484772,130.432983 221.207443,130.786087 221.172272,130.385254 
	C220.493973,129.525452 219.850845,129.066452 219.207733,128.607468 
	C219.207733,128.607468 219.222702,128.731628 219.121063,128.461609 
	C218.380081,127.719658 217.740723,127.247726 217.101379,126.775795 
	C217.041916,126.606491 216.982468,126.437195 216.670853,125.864090 
	C216.063187,125.173424 215.707672,124.886574 215.352158,124.599724 
	C215.352158,124.599724 215.344299,124.684715 215.283340,124.413986 
	C214.812973,123.750992 214.403564,123.358711 213.994141,122.966431 
	C213.994141,122.966438 213.976013,123.012871 213.943451,122.735931 
	C213.613205,122.238152 213.315491,122.017303 213.017792,121.796463 
	C212.967087,121.634888 212.916367,121.473312 212.602966,120.891640 
	C211.951157,119.909660 211.562042,119.347771 211.172928,118.785889 
	C211.172928,118.785889 211.137085,118.902061 211.147858,118.605438 
	C210.806976,117.814621 210.455338,117.320419 210.103699,116.826218 
	C210.103699,116.826218 210.094849,116.907120 210.104309,116.614113 
	C209.772964,115.855690 209.432175,115.390274 209.091385,114.924866 
	C208.956467,114.381226 208.821548,113.837585 208.404449,112.715317 
	C205.307526,103.156967 205.080063,94.138176 207.713608,85.076172 
M256.818970,122.137146 
	C257.950989,121.483978 259.083038,120.830818 260.803864,119.846680 
	C262.778625,118.178169 265.005371,116.729568 266.685730,114.804153 
	C275.234344,105.009064 275.039581,91.927551 266.347900,80.698494 
	C259.694336,72.102501 246.131866,69.439865 235.555542,74.605064 
	C226.406921,79.073013 221.289200,86.341087 220.828735,96.507133 
	C220.404083,105.882240 223.690872,113.677055 232.136139,119.608826 
	C233.357742,120.228493 234.579330,120.848160 235.780182,121.347626 
	C235.780182,121.347626 235.662598,121.380081 236.164307,121.925499 
	C242.775162,124.584663 249.408691,125.264404 256.124359,122.155357 
	C256.124359,122.155357 256.150940,122.127159 256.818970,122.137146 
z"/>
<path fill="#D4A13C" opacity="1.000000" stroke="none" 
	d="
M207.409210,85.223282 
	C205.080063,94.138176 205.307526,103.156967 208.178650,112.543900 
	C202.744156,103.967102 203.013702,94.747047 207.409210,85.223282 
z"/>
<path fill="#D4A13C" opacity="1.000000" stroke="none" 
	d="
M223.144089,132.201904 
	C225.319138,133.014297 227.589081,134.162521 230.067978,135.580795 
	C227.930939,134.746475 225.584976,133.642105 223.144089,132.201904 
z"/>
<path fill="#D4A13C" opacity="1.000000" stroke="none" 
	d="
M208.944763,115.132729 
	C209.432175,115.390274 209.772964,115.855690 210.144913,116.616623 
	C209.716751,116.388290 209.257446,115.864449 208.944763,115.132729 
z"/>
<path fill="#D4A13C" opacity="1.000000" stroke="none" 
	d="
M211.173645,119.066727 
	C211.562042,119.347771 211.951157,119.909660 212.410309,120.726074 
	C212.045029,120.436264 211.609695,119.891914 211.173645,119.066727 
z"/>
<path fill="#D4A13C" opacity="1.000000" stroke="none" 
	d="
M219.315796,128.914337 
	C219.850845,129.066452 220.493973,129.525452 221.325577,130.221268 
	C220.817322,130.045807 220.120590,129.633514 219.315796,128.914337 
z"/>
<path fill="#D4A13C" opacity="1.000000" stroke="none" 
	d="
M217.172394,127.099426 
	C217.740723,127.247726 218.380081,127.719658 219.182343,128.449112 
	C218.644653,128.278778 217.944031,127.850922 217.172394,127.099426 
z"/>
<path fill="#D4A13C" opacity="1.000000" stroke="none" 
	d="
M221.575653,130.720917 
	C221.960007,130.759781 222.435257,131.086578 223.018433,131.680618 
	C222.639771,131.634872 222.153168,131.321854 221.575653,130.720917 
z"/>
<path fill="#D4A13C" opacity="1.000000" stroke="none" 
	d="
M210.141083,117.137329 
	C210.455338,117.320419 210.806976,117.814621 211.206619,118.621010 
	C210.895889,118.438278 210.537170,117.943352 210.141083,117.137329 
z"/>
<path fill="#D4A13C" opacity="1.000000" stroke="none" 
	d="
M215.405533,124.832260 
	C215.707672,124.886574 216.063187,125.173424 216.471375,125.683388 
	C216.169006,125.625923 215.813965,125.345360 215.405533,124.832260 
z"/>
<path fill="#D4A13C" opacity="1.000000" stroke="none" 
	d="
M214.075821,123.251404 
	C214.403564,123.358711 214.812973,123.750992 215.325928,124.411102 
	C215.005463,124.298080 214.581482,123.917221 214.075821,123.251404 
z"/>
<path fill="#D4A13C" opacity="1.000000" stroke="none" 
	d="
M213.132690,122.040283 
	C213.315491,122.017303 213.613205,122.238152 213.968323,122.737724 
	C213.766342,122.772339 213.506958,122.528229 213.132690,122.040283 
z"/>
<path fill="#E9A61C" opacity="1.000000" stroke="none" 
	d="
M231.806992,118.997643 
	C223.690872,113.677055 220.404083,105.882240 220.828735,96.507133 
	C221.289200,86.341087 226.406921,79.073013 235.555542,74.605064 
	C246.131866,69.439865 259.694336,72.102501 266.347900,80.698494 
	C275.039581,91.927551 275.234344,105.009064 266.685730,114.804153 
	C265.005371,116.729568 262.778625,118.178169 260.158539,119.988762 
	C258.392456,120.796280 257.271698,121.461716 256.150940,122.127159 
	C256.150940,122.127159 256.124359,122.155357 255.677856,122.107452 
	C248.708450,121.833061 242.185516,121.606575 235.662598,121.380081 
	C235.662598,121.380081 235.780182,121.347626 235.623978,121.097534 
	C234.247513,120.230835 233.027252,119.614235 231.806992,118.997643 
M242.991211,108.850754 
	C249.120422,111.265884 253.348190,109.464851 256.578094,103.062744 
	C259.192810,97.880104 257.436890,91.505829 252.613586,88.670990 
	C247.045090,85.398132 240.677887,86.920166 237.392776,92.309418 
	C233.916519,98.012260 235.770599,103.894119 242.991211,108.850754 
z"/>
<path fill="#CF9F3B" opacity="1.000000" stroke="none" 
	d="
M235.913452,121.652786 
	C242.185516,121.606575 248.708450,121.833061 255.658508,122.106659 
	C249.408691,125.264404 242.775162,124.584663 235.913452,121.652786 
z"/>
<path fill="#CF9F3B" opacity="1.000000" stroke="none" 
	d="
M256.484955,122.132156 
	C257.271698,121.461716 258.392456,120.796280 259.864136,120.154251 
	C259.083038,120.830818 257.950989,121.483978 256.484955,122.132156 
z"/>
<path fill="#CF9F3B" opacity="1.000000" stroke="none" 
	d="
M231.971558,119.303238 
	C233.027252,119.614235 234.247513,120.230835 235.634354,121.157631 
	C234.579330,120.848160 233.357742,120.228493 231.971558,119.303238 
z"/>
<path fill="#080400" opacity="1.000000" stroke="none" 
	d="
M242.714874,108.583603 
	C235.770599,103.894119 233.916519,98.012260 237.392776,92.309418 
	C240.677887,86.920166 247.045090,85.398132 252.613586,88.670990 
	C257.436890,91.505829 259.192810,97.880104 256.578094,103.062744 
	C253.348190,109.464851 249.120422,111.265884 242.714874,108.583603 
z"/>
</svg>